<svg xmlns="http://www.w3.org/2000/svg" width="81.843" height="58.279" viewBox="0 0 81.843 58.279"><path d="M271.123,211.608h-3.672a2.445,2.445,0,0,1-2.442-2.442V205.61h-56.22v3.556a2.445,2.445,0,0,1-2.442,2.442h-3.672a2.445,2.445,0,0,1-2.442-2.442V205.61h-4.255v-40.7l.02-.059c.041-.121,1.071-3,6.689-5.85A47.008,47.008,0,0,1,215,155.1a118.574,118.574,0,0,1,21.9-1.768,117.117,117.117,0,0,1,21.9,1.791,46.6,46.6,0,0,1,12.317,3.96c5.618,2.891,6.648,5.8,6.689,5.923l.019.058v40.55h-4.255v3.556A2.445,2.445,0,0,1,271.123,211.608Zm-5.364-6v3.556a1.694,1.694,0,0,0,1.692,1.692h3.672a1.694,1.694,0,0,0,1.692-1.692V205.61Zm-64.776,0v3.556a1.694,1.694,0,0,0,1.692,1.692h3.672a1.694,1.694,0,0,0,1.692-1.692V205.61Zm-4.255-.75H277.07V186.1H196.727Zm0-19.513H277.07V165.192a6.447,6.447,0,0,0-1.143-1.679,17.669,17.669,0,0,0-5.285-3.831,46.35,46.35,0,0,0-12.117-3.85,116.749,116.749,0,0,0-21.628-1.753,117.835,117.835,0,0,0-21.754,1.755,46.274,46.274,0,0,0-12.117,3.841c-4.944,2.512-6.139,4.99-6.3,5.372Zm76.105-.657h-.75a4.458,4.458,0,0,0-4.453-4.453H204.575a4.457,4.457,0,0,0-4.45,4.453h-.75a5.207,5.207,0,0,1,5.2-5.2h6.449l-.232-.048a10.1,10.1,0,0,1-3.293-1.2,2.5,2.5,0,0,1-1.332-2.11c0-1.583,1.7-3.358,4.539-4.748a24.643,24.643,0,0,1,10.617-2.295,24.157,24.157,0,0,1,10.618,2.359c2.84,1.422,4.535,3.22,4.535,4.809a2.462,2.462,0,0,1-1.336,2.093,9.8,9.8,0,0,1-3.219,1.141H242.1l-.232-.048a10.1,10.1,0,0,1-3.292-1.2,2.5,2.5,0,0,1-1.332-2.11c0-1.583,1.7-3.358,4.539-4.748a24.637,24.637,0,0,1,10.615-2.295,24.164,24.164,0,0,1,10.619,2.359c2.841,1.422,4.537,3.22,4.537,4.809a2.462,2.462,0,0,1-1.336,2.093,9.805,9.805,0,0,1-3.22,1.141h4.632A5.209,5.209,0,0,1,272.832,184.689Zm-20.435-5.2a55.411,55.411,0,0,0,10.377-.72c2.674-.543,4.029-1.389,4.029-2.514a3.118,3.118,0,0,0-1.056-2.012,11.475,11.475,0,0,0-3.066-2.126,23.4,23.4,0,0,0-10.284-2.28c-8.219,0-14.4,3.818-14.4,6.293,0,1.136,1.357,2,4.032,2.578A52.7,52.7,0,0,0,252.4,179.487Zm-31.074,0a55.4,55.4,0,0,0,10.376-.72c2.673-.543,4.028-1.389,4.028-2.514a3.118,3.118,0,0,0-1.056-2.012,11.471,11.471,0,0,0-3.066-2.126,23.4,23.4,0,0,0-10.282-2.28c-8.22,0-14.406,3.818-14.406,6.293,0,1.136,1.357,2,4.032,2.578A52.718,52.718,0,0,0,221.324,179.487Z" transform="translate(-195.977 -153.329)"/></svg>