<svg xmlns="http://www.w3.org/2000/svg" width="46.345" height="87.846" viewBox="0 0 46.345 87.846"><path d="M170.646,318.87H133.887a4.8,4.8,0,0,1-4.794-4.794V235.816a4.8,4.8,0,0,1,4.794-4.792h36.759a4.8,4.8,0,0,1,4.792,4.792v78.259A4.8,4.8,0,0,1,170.646,318.87Zm-40.8-52.7v47.9a4.049,4.049,0,0,0,4.044,4.044h36.759a4.048,4.048,0,0,0,4.042-4.044v-47.9Zm0-.75h44.845V235.816a4.047,4.047,0,0,0-4.042-4.042H133.887a4.048,4.048,0,0,0-4.044,4.042Zm9.009,15.666h-.75v-7.646h.75Zm0-22.935h-.75v-7.644h.75Z" transform="translate(-129.093 -231.024)"/></svg>