<svg xmlns="http://www.w3.org/2000/svg" width="20.567" height="22.461" viewBox="0 0 20.567 22.461"><path d="M-1986.989,19.448A10.217,10.217,0,0,1-1990,12.175a10.23,10.23,0,0,1,1.8-5.81,10.274,10.274,0,0,1,4.621-3.721.25.25,0,0,1,.326.138.25.25,0,0,1-.138.325,9.773,9.773,0,0,0-4.4,3.542,9.73,9.73,0,0,0-1.71,5.528,9.8,9.8,0,0,0,9.784,9.786,9.8,9.8,0,0,0,9.783-9.786,9.728,9.728,0,0,0-1.71-5.527,9.793,9.793,0,0,0-4.4-3.542.249.249,0,0,1-.137-.326.249.249,0,0,1,.326-.137,10.283,10.283,0,0,1,4.62,3.722,10.223,10.223,0,0,1,1.8,5.81,10.3,10.3,0,0,1-10.283,10.286A10.213,10.213,0,0,1-1986.989,19.448Zm7.021-7.347V.25a.25.25,0,0,1,.25-.25.25.25,0,0,1,.25.25V12.1a.25.25,0,0,1-.25.25A.25.25,0,0,1-1979.968,12.1Z" transform="translate(1990)"/></svg>