<svg xmlns="http://www.w3.org/2000/svg" width="60.786" height="74.107" viewBox="0 0 60.786 74.107"><path d="M158.856,320.207a6.459,6.459,0,0,1,4.573,11.031l-5.253,5.251-.53-.53,5.253-5.251a5.716,5.716,0,0,0-8.084-8.084l-5.253,5.251-.53-.53,5.253-5.251A6.416,6.416,0,0,1,158.856,320.207Zm-19.491,5.438c.24,0,.479,0,.72.012a20.538,20.538,0,0,1,17.769,11.6,18.383,18.383,0,0,1,7.163,3.95,20.025,20.025,0,0,1,5.047,6.854,28.167,28.167,0,0,1,2.285,11.69v27.767h-.75V359.755a27.427,27.427,0,0,0-2.218-11.38,19.28,19.28,0,0,0-4.858-6.6,18.331,18.331,0,0,0-6.26-3.611,20.534,20.534,0,0,1-3.352,21.368,1.727,1.727,0,0,1-1.26.6,1.846,1.846,0,0,1-1.369-.535l-8.9-8.9a6.164,6.164,0,1,1-8.56-8.56l-8.9-8.9a1.845,1.845,0,0,1-.535-1.369,1.727,1.727,0,0,1,.6-1.26A20.422,20.422,0,0,1,139.364,325.646Zm14.217,33.734h.04a.985.985,0,0,0,.72-.337,19.757,19.757,0,0,0-27.862-27.862.985.985,0,0,0-.337.72,1.093,1.093,0,0,0,.316.811l26.352,26.352A1.092,1.092,0,0,0,153.581,359.38Zm-10.739-9.224-7.477-7.477a5.414,5.414,0,1,0,7.477,7.477Zm4.981,37.979h35.264a3.09,3.09,0,1,1,0,6.18H147.823a3.09,3.09,0,1,1,0-6.18Zm35.264,5.43a2.34,2.34,0,1,0,0-4.68H147.823a2.34,2.34,0,1,0,0,4.68Z" transform="translate(-125.391 -320.207)"/></svg>