<svg xmlns="http://www.w3.org/2000/svg" width="32.05" height="32.048" viewBox="0 0 32.05 32.048"><path d="M581.434,233.9a.375.375,0,0,1-.375-.375v-4.918a.375.375,0,1,1,.75,0v4.918A.375.375,0,0,1,581.434,233.9Zm11.066-4.584a.374.374,0,0,1-.265-.11l-3.48-3.478a.375.375,0,1,1,.53-.53l3.48,3.478a.375.375,0,0,1-.265.64Zm-22.131,0a.375.375,0,0,1-.265-.64l3.478-3.478a.375.375,0,0,1,.53.53l-3.478,3.478A.374.374,0,0,1,570.369,229.318Zm11.064-4.428a7.013,7.013,0,1,1,7.013-7.013A7.02,7.02,0,0,1,581.432,224.89Zm0-13.275a6.263,6.263,0,1,0,6.263,6.263A6.269,6.269,0,0,0,581.432,211.615Zm15.651,6.638h-4.921a.375.375,0,0,1,0-.75h4.921a.375.375,0,0,1,0,.75Zm-26.38,0h-4.92a.375.375,0,0,1,0-.75h4.92a.375.375,0,0,1,0,.75Zm3.143-7.586a.374.374,0,0,1-.265-.11l-3.478-3.48a.375.375,0,0,1,.531-.53l3.478,3.48a.375.375,0,0,1-.265.64Zm15.174,0a.375.375,0,0,1-.265-.64l3.48-3.48a.375.375,0,0,1,.53.53l-3.48,3.48A.374.374,0,0,1,589.02,210.666Zm-7.586-3.143a.375.375,0,0,1-.375-.375v-4.92a.375.375,0,0,1,.75,0v4.92A.375.375,0,0,1,581.434,207.523Z" transform="translate(-565.408 -201.853)"/></svg>