<svg xmlns="http://www.w3.org/2000/svg" width="91.081" height="78.297" viewBox="0 0 91.081 78.297"><path d="M268.366,310.749h-.75a16.968,16.968,0,0,0-1.2-6.6,9.083,9.083,0,0,0-1.1-1.979,31.164,31.164,0,0,1-3.9,1.737l-.063.023h-45.18l-.063-.023a31.167,31.167,0,0,1-3.9-1.737,9.083,9.083,0,0,0-1.1,1.979,16.982,16.982,0,0,0-1.2,6.6h-.75c0-5.272,1.775-8.116,2.387-8.941a25.331,25.331,0,0,1-6.147-4.823,24.335,24.335,0,0,1-5.067-8.446,26.779,26.779,0,0,1-1.556-9.737h-3.159a2.39,2.39,0,1,1,0-4.781h66.959V240.565a8.567,8.567,0,0,0-2.074-5.519,6.768,6.768,0,0,0-7.218-1.347,6.082,6.082,0,0,0-3.422,3.384l-.691-.292a6.9,6.9,0,0,1,3.861-3.8,7.521,7.521,0,0,1,8.01,1.533,9.177,9.177,0,0,1,2.285,6.051v33.445h18.592a2.39,2.39,0,1,1,0,4.781h-3.159a26.782,26.782,0,0,1-1.557,9.737,24.34,24.34,0,0,1-5.068,8.446,25.335,25.335,0,0,1-6.147,4.823C266.59,302.633,268.366,305.477,268.366,310.749ZM216.3,303.183h44.913a26.328,26.328,0,0,0,10.347-6.694,23.588,23.588,0,0,0,4.915-8.173A26.413,26.413,0,0,0,278,278.8H199.519a26.41,26.41,0,0,0,1.52,9.515,23.584,23.584,0,0,0,4.914,8.173A26.325,26.325,0,0,0,216.3,303.183Zm62.393-25.132h3.215a1.64,1.64,0,1,0,0-3.281h-86.3a1.64,1.64,0,1,0,0,3.281ZM254.937,243H244.072v-.375a5.433,5.433,0,1,1,10.865,0Zm-10.1-.75h9.336a4.683,4.683,0,0,0-9.336,0Z" transform="translate(-193.217 -232.452)"/></svg>