<svg xmlns="http://www.w3.org/2000/svg" width="23.006" height="31.306" viewBox="0 0 23.006 31.306"><path d="M-1978.711,31.306a3.426,3.426,0,0,1-3.184-1.544c-.954-1.588-.755-4.338.591-8.173a42.723,42.723,0,0,1,2.262-5.217.376.376,0,0,1,.363-.2.377.377,0,0,1,.363.2,42.723,42.723,0,0,1,2.262,5.217c1.346,3.835,1.545,6.584.59,8.173a3.423,3.423,0,0,1-3.183,1.544Zm-1.888-9.461c-1.248,3.559-1.474,6.163-.652,7.53a2.7,2.7,0,0,0,2.541,1.181h.063a2.7,2.7,0,0,0,2.541-1.181c.822-1.368.595-3.975-.655-7.538a42.059,42.059,0,0,0-1.917-4.522A42.212,42.212,0,0,0-1980.6,21.845Zm9.764-6.711a3.425,3.425,0,0,1-3.183-1.543c-.954-1.589-.755-4.338.59-8.174A42.83,42.83,0,0,1-1971.167.2a.375.375,0,0,1,.364-.2.374.374,0,0,1,.364.2,42.776,42.776,0,0,1,2.262,5.217c1.346,3.835,1.544,6.585.59,8.173a3.423,3.423,0,0,1-3.183,1.544Zm-1.888-9.461c-1.248,3.56-1.473,6.164-.652,7.531a2.694,2.694,0,0,0,2.54,1.18h.065a2.694,2.694,0,0,0,2.541-1.181c.821-1.367.6-3.971-.652-7.53A42.2,42.2,0,0,0-1970.8,1.14,42.263,42.263,0,0,0-1972.724,5.673Zm-13.5,9.461a3.425,3.425,0,0,1-3.184-1.544c-.954-1.588-.755-4.338.591-8.173A42.754,42.754,0,0,1-1986.555.2a.377.377,0,0,1,.363-.2.374.374,0,0,1,.362.2,42.549,42.549,0,0,1,2.263,5.217c1.346,3.835,1.544,6.585.59,8.173a3.423,3.423,0,0,1-3.183,1.544Zm-1.888-9.461c-1.248,3.56-1.474,6.163-.653,7.53a2.694,2.694,0,0,0,2.541,1.181h.063a2.7,2.7,0,0,0,2.541-1.181c.821-1.367.6-3.971-.652-7.53a42.477,42.477,0,0,0-1.92-4.531A42.121,42.121,0,0,0-1988.112,5.673Z" transform="translate(1990 0)"/></svg>