<svg xmlns="http://www.w3.org/2000/svg" width="39.522" height="44.748" viewBox="0 0 39.522 44.748"><path d="M-1971.68,44.748a.375.375,0,0,1-.375-.375.375.375,0,0,1,.375-.374h2.883a.374.374,0,0,1,.374.374.374.374,0,0,1-.374.375Zm-1.023-2.325a.374.374,0,0,1-.374-.374.374.374,0,0,1,.374-.375h4.928a.375.375,0,0,1,.375.375.374.374,0,0,1-.375.374Zm-.639-2.417a.376.376,0,0,1-.375-.375.376.376,0,0,1,.375-.375h6.207a.376.376,0,0,1,.375.375.376.376,0,0,1-.375.375Zm.035-2.568a.375.375,0,0,1-.375-.375,12.718,12.718,0,0,0-.617-3.433,11.769,11.769,0,0,0-4.249-6.026,9,9,0,0,1-3.06-5.3,13.893,13.893,0,0,1,.272-7.272,10.287,10.287,0,0,1,3.642-5.184,12.288,12.288,0,0,1,7.457-2.173,12.29,12.29,0,0,1,7.456,2.172,10.287,10.287,0,0,1,3.641,5.185,13.879,13.879,0,0,1,.272,7.271,9,9,0,0,1-3.06,5.3,11.765,11.765,0,0,0-4.248,6.026,12.743,12.743,0,0,0-.618,3.433.375.375,0,0,1-.375.374Zm-3.942-26.987a9.418,9.418,0,0,0-3.374,4.812,13.121,13.121,0,0,0-.254,6.872A8.261,8.261,0,0,0-1978.11,27a12.516,12.516,0,0,1,4.532,6.432,14.119,14.119,0,0,1,.63,3.26h5.416a14.119,14.119,0,0,1,.63-3.26A12.517,12.517,0,0,1-1962.369,27a8.266,8.266,0,0,0,2.768-4.861,13.123,13.123,0,0,0-.255-6.873,9.408,9.408,0,0,0-3.373-4.811,11.562,11.562,0,0,0-7.01-2.026A11.566,11.566,0,0,0-1977.25,10.451Zm6.636,24.38v-11.9h-4.415a.375.375,0,0,1-.374-.375.375.375,0,0,1,.374-.375h9.579a.375.375,0,0,1,.374.375.375.375,0,0,1-.374.375h-4.415v11.9a.374.374,0,0,1-.374.375A.374.374,0,0,1-1970.614,34.831Zm15.589-16.115a.374.374,0,0,1-.375-.374.375.375,0,0,1,.375-.375h4.172a.376.376,0,0,1,.375.375.375.375,0,0,1-.375.374Zm-34.6,0a.374.374,0,0,1-.375-.374.375.375,0,0,1,.375-.375h4.172a.376.376,0,0,1,.375.375.375.375,0,0,1-.375.374Zm29.739-10.12a.374.374,0,0,1,0-.53l2.95-2.95a.374.374,0,0,1,.53,0,.374.374,0,0,1,0,.53l-2.95,2.95a.371.371,0,0,1-.265.11A.373.373,0,0,1-1959.886,8.6Zm-21.42,0-2.949-2.95a.374.374,0,0,1,0-.53.374.374,0,0,1,.53,0l2.95,2.95a.374.374,0,0,1,0,.53.373.373,0,0,1-.266.11A.372.372,0,0,1-1981.306,8.6Zm10.6-4.05V.375a.376.376,0,0,1,.375-.375.376.376,0,0,1,.375.375V4.547a.376.376,0,0,1-.375.375A.376.376,0,0,1-1970.707,4.547Z" transform="translate(1990)"/></svg>