<svg xmlns="http://www.w3.org/2000/svg" width="94.837" height="57.519" viewBox="0 0 94.837 57.519"><path d="M206.164,210.832h-2.456a2.788,2.788,0,0,1-2.786-2.783v-2.908H129.651v2.908a2.787,2.787,0,0,1-2.783,2.783h-2.456a2.788,2.788,0,0,1-2.786-2.783v-2.908h-3.758v-25.9a7.3,7.3,0,0,1,7.291-7.291q.259,0,.515.018V157.336a4.028,4.028,0,0,1,4.023-4.023H161.64a4.028,4.028,0,0,1,3.648,2.328,4.028,4.028,0,0,1,3.648-2.328h31.94a4.028,4.028,0,0,1,4.023,4.023v14.627q.255-.018.515-.018a7.3,7.3,0,0,1,7.291,7.291v25.9h-3.758v2.908A2.787,2.787,0,0,1,206.164,210.832Zm-4.492-5.692v2.908a2.037,2.037,0,0,0,2.036,2.033h2.456a2.036,2.036,0,0,0,2.033-2.033v-2.908Zm-79.3,0v2.908a2.037,2.037,0,0,0,2.036,2.033h2.456a2.036,2.036,0,0,0,2.033-2.033v-2.908Zm-3.758-.75h93.337V179.236a6.54,6.54,0,1,0-13.08,0v1.3a6.542,6.542,0,0,1-.518,13.063H132.216a6.542,6.542,0,0,1-.515-13.063v-1.3a6.541,6.541,0,1,0-13.083,0Zm13.6-23.129a5.792,5.792,0,1,0,0,11.584h66.141a5.792,5.792,0,0,0,0-11.584Zm33.447-.75h32.462v-1.275a7.3,7.3,0,0,1,6.024-7.181V157.336a3.277,3.277,0,0,0-3.273-3.273h-31.94a3.277,3.277,0,0,0-3.273,3.273Zm-33.212,0h32.462V157.336a3.277,3.277,0,0,0-3.273-3.273H129.7a3.277,3.277,0,0,0-3.273,3.273v14.719a7.3,7.3,0,0,1,6.026,7.182Z" transform="translate(-117.868 -153.313)"/></svg>