<svg xmlns="http://www.w3.org/2000/svg" width="15.211" height="45.267" viewBox="0 0 15.211 45.267"><path d="M-1990,37.663a7.6,7.6,0,0,1,3.756-6.522V3.85A3.855,3.855,0,0,1-1982.393,0a3.854,3.854,0,0,1,3.85,3.85V31.141a7.6,7.6,0,0,1,3.754,6.522,7.612,7.612,0,0,1-7.6,7.6A7.614,7.614,0,0,1-1990,37.663Zm4.506-33.813V31.358a.377.377,0,0,1-.193.328,6.852,6.852,0,0,0-3.563,5.977,6.864,6.864,0,0,0,6.857,6.854,6.863,6.863,0,0,0,6.854-6.854,6.853,6.853,0,0,0-3.561-5.977.376.376,0,0,1-.193-.328V3.85a3.1,3.1,0,0,0-3.1-3.1A3.1,3.1,0,0,0-1985.494,3.85Zm-.053,33.722a3.153,3.153,0,0,1,2.9-3.144v-20.1a.25.25,0,0,1,.25-.249.25.25,0,0,1,.25.249v20.1a3.154,3.154,0,0,1,2.9,3.144,3.153,3.153,0,0,1-3.154,3.153A3.152,3.152,0,0,1-1985.547,37.572Z" transform="translate(1990)"/></svg>