<svg xmlns="http://www.w3.org/2000/svg" width="59.627" height="71.268" viewBox="0 0 59.627 71.268"><path d="M256.412,392.451h-51.4a4.12,4.12,0,0,1-4.114-4.116V325.3a4.12,4.12,0,0,1,4.114-4.116h51.4a4.121,4.121,0,0,1,4.116,4.116v63.035A4.121,4.121,0,0,1,256.412,392.451Zm-54.761-55.028v50.912a3.369,3.369,0,0,0,3.364,3.366h51.4a3.37,3.37,0,0,0,3.366-3.366V337.422Zm18.827-.75h39.3V325.3a3.37,3.37,0,0,0-3.366-3.366H220.478Zm-11.982,0h11.232V321.933H208.5Zm-6.845,0h6.1V321.933h-2.731a3.369,3.369,0,0,0-3.364,3.366Zm29.064,49.477a21.446,21.446,0,1,1,8.373-1.691A21.377,21.377,0,0,1,230.715,386.15Zm0-42.278A20.7,20.7,0,1,0,238.8,345.5,20.632,20.632,0,0,0,230.715,343.872Zm0,34.526a13.762,13.762,0,1,1,9.73-4.031A13.673,13.673,0,0,1,230.715,378.4Zm0-26.773a13.012,13.012,0,1,0,9.2,3.811A12.928,12.928,0,0,0,230.715,351.624Zm21.138-19.807a2.514,2.514,0,1,1,2.513-2.513A2.517,2.517,0,0,1,251.852,331.817Zm0-4.279a1.764,1.764,0,1,0,1.763,1.766A1.768,1.768,0,0,0,251.852,327.538Zm-9.333,4.279a2.514,2.514,0,1,1,2.513-2.513A2.517,2.517,0,0,1,242.519,331.817Zm0-4.279a1.764,1.764,0,1,0,1.763,1.766A1.768,1.768,0,0,0,242.519,327.538Zm-9.333,4.279A2.514,2.514,0,1,1,235.7,329.3,2.517,2.517,0,0,1,233.186,331.817Zm0-4.279a1.764,1.764,0,1,0,1.763,1.766A1.768,1.768,0,0,0,233.186,327.538Z" transform="translate(-200.901 -321.183)"/></svg>