<?xml version="1.0" encoding="utf-8"?>
<!-- Generator: Adobe Illustrator 27.8.1, SVG Export Plug-In . SVG Version: 6.00 Build 0)  -->
<svg version="1.1" id="Layer_1" xmlns="http://www.w3.org/2000/svg" xmlns:xlink="http://www.w3.org/1999/xlink" x="0px" y="0px"
	 viewBox="0 0 293.5 14" style="enable-background:new 0 0 293.5 14;" xml:space="preserve">
<style type="text/css">
	.st0{enable-background:new    ;}
	.st1{fill:#414042;}
</style>
<g class="st0">
	<path class="st1" d="M3.8,11H2.7V6.4c0-0.5,0-1,0-1.3C2.6,5.2,2.5,5.2,2.4,5.3S1.9,5.7,1.3,6.2L0.8,5.5l2.1-1.7h1L3.8,11L3.8,11z"
		/>
	<path class="st1" d="M11,11H6.1v-0.9L8,8.3c0.5-0.6,0.9-1,1.1-1.2c0.2-0.2,0.3-0.5,0.4-0.7S9.6,6,9.6,5.8c0-0.3-0.1-0.6-0.3-0.8
		S8.8,4.7,8.5,4.7S8,4.8,7.7,4.9S7.1,5.2,6.8,5.4L6.2,4.7C6.6,4.3,7,4.1,7.3,4c0.4-0.1,0.8-0.2,1.2-0.2c0.7,0,1.2,0.2,1.6,0.5
		c0.4,0.3,0.6,0.8,0.6,1.4c0,0.3-0.1,0.6-0.2,0.9S10.3,7.2,10,7.5C9.8,7.8,9.4,8.2,8.8,8.7L7.6,9.9l0,0H11V11z"/>
	<path class="st1" d="M12.1,6.2c0-0.5,0.2-0.7,0.7-0.7c0.2,0,0.4,0.1,0.5,0.2s0.2,0.3,0.2,0.5s-0.1,0.4-0.2,0.5
		C13.2,6.9,13,7,12.8,7s-0.4-0.1-0.5-0.2S12.1,6.5,12.1,6.2z M12.1,10.4c0-0.2,0.1-0.4,0.2-0.5s0.3-0.2,0.5-0.2s0.4,0.1,0.5,0.2
		c0.1,0.1,0.2,0.3,0.2,0.5s-0.1,0.4-0.2,0.5c-0.1,0.1-0.3,0.2-0.5,0.2s-0.4-0.1-0.5-0.2S12.1,10.6,12.1,10.4z"/>
	<path class="st1" d="M19.4,7.4c0,1.2-0.2,2.2-0.6,2.8s-1,0.9-1.8,0.9s-1.4-0.3-1.8-0.9s-0.6-1.5-0.6-2.7c0-1.3,0.2-2.2,0.6-2.8
		c0.4-0.6,1-0.9,1.8-0.9s1.4,0.3,1.8,0.9S19.4,6.2,19.4,7.4z M15.8,7.4c0,1,0.1,1.7,0.3,2.1c0.2,0.4,0.5,0.6,1,0.6s0.8-0.2,1-0.6
		s0.3-1.1,0.3-2.1s-0.1-1.6-0.3-2.1c-0.2-0.4-0.5-0.6-1-0.6s-0.8,0.2-1,0.6S15.8,6.5,15.8,7.4z"/>
	<path class="st1" d="M25.2,7.4c0,1.2-0.2,2.2-0.6,2.8s-1,0.9-1.8,0.9s-1.4-0.3-1.8-0.9s-0.6-1.5-0.6-2.7c0-1.3,0.2-2.2,0.6-2.8
		s1-0.9,1.8-0.9s1.4,0.3,1.8,0.9S25.2,6.2,25.2,7.4z M21.5,7.4c0,1,0.1,1.7,0.3,2.1s0.5,0.6,1,0.6s0.8-0.2,1-0.6S24,8.4,24,7.4
		s-0.1-1.6-0.3-2.1c-0.2-0.4-0.5-0.6-1-0.6s-0.8,0.2-1,0.6S21.5,6.5,21.5,7.4z"/>
</g>
<g id="Сгруппировать_89" transform="translate(239.304 0.746)">
	<rect id="Прямоугольник_29" x="0" y="7.6" class="st1" width="2.3" height="3.7"/>
	<rect id="Прямоугольник_30" x="3.2" y="6.1" class="st1" width="2.3" height="5.2"/>
	<rect id="Прямоугольник_31" x="6.5" y="4.7" class="st1" width="2.3" height="6.7"/>
	<rect id="Прямоугольник_32" x="9.8" y="3" class="st1" width="2.3" height="8.3"/>
</g>
<g>
	<path class="st1" d="M270.3,4.7c-0.5-0.3-1-0.6-1.5-0.8c-1.1-0.5-2.3-0.7-3.5-0.7s-2.4,0.2-3.5,0.7c-0.5,0.2-1.1,0.5-1.5,0.8
		c-0.3,0.2-0.6,0.5-0.9,0.7l0.9,1c0.6-0.6,1.3-1,2.1-1.3c1-0.4,2-0.6,3-0.6s2.1,0.2,3,0.6c0.8,0.3,1.5,0.8,2.1,1.3l0.9-1
		C270.9,5.2,270.6,4.9,270.3,4.7z"/>
	<path class="st1" d="M267.8,6.3c-0.8-0.3-1.7-0.5-2.5-0.5s-1.7,0.2-2.5,0.5c-0.6,0.3-1.2,0.6-1.8,1.1l0.9,1
		c0.4-0.4,0.9-0.7,1.4-0.9c0.6-0.3,1.3-0.4,2-0.4s1.4,0.1,2,0.4c0.5,0.2,1,0.5,1.4,0.9l0.9-1C269,6.9,268.4,6.5,267.8,6.3z"/>
	<path class="st1" d="M266.7,8.6c-0.5-0.2-1-0.3-1.5-0.3s-1,0.1-1.5,0.3c-0.4,0.2-0.7,0.4-1,0.7l0.9,1c0.5-0.4,1.1-0.6,1.7-0.6
		c0.6,0,1.2,0.2,1.7,0.6l0.9-1C267.5,9,267.1,8.8,266.7,8.6z"/>
	<path class="st1" d="M265.2,10.9c-0.3,0-0.6,0.1-0.9,0.3l0.8,1l0.9-1C265.8,11,265.5,10.9,265.2,10.9z"/>
</g>
<path class="st1" d="M291.8,11h-14c-0.1,0-0.2-0.1-0.2-0.2V4.9c0-0.1,0.1-0.2,0.2-0.2h14c0.1,0,0.2,0.1,0.2,0.2v5.9
	C292.1,10.9,291.9,11,291.8,11z"/>
<path class="st1" d="M292.5,9V6.7c0-0.1,0.1-0.2,0.2-0.2h0.6c0.1,0,0.2,0.1,0.2,0.2V9c0,0.1-0.1,0.2-0.2,0.2h-0.6
	C292.6,9.3,292.5,9.2,292.5,9z"/>
</svg>
