<svg xmlns="http://www.w3.org/2000/svg" xmlns:xlink="http://www.w3.org/1999/xlink" width="350.077" height="79.464" viewBox="0 0 350.077 79.464"><defs><clipPath id="a"><rect width="350.077" height="79.464" fill="none"/></clipPath><filter id="b" x="-1.5" y="16.95" width="353.077" height="63.013" filterUnits="userSpaceOnUse"><feOffset dy="-1" input="SourceAlpha"/><feGaussianBlur stdDeviation="0.5" result="c"/><feFlood flood-color="#351c23" flood-opacity="0.078"/><feComposite operator="in" in2="c"/><feComposite in="SourceGraphic"/></filter></defs><g clip-path="url(#a)"><g transform="translate(0 19.45)"><g transform="matrix(1, 0, 0, 1, 0, -19.45)" filter="url(#b)"><path d="M0,0H350.077a0,0,0,0,1,0,0V39.519a20.494,20.494,0,0,1-20.494,20.494H20.494A20.494,20.494,0,0,1,0,39.519V0A0,0,0,0,1,0,0Z" transform="translate(0 19.45)" fill="#fff"/></g><g transform="translate(44.478 17.836)"><g transform="translate(0 0.984)"><path d="M136.371,413.335l-9.394-9.77-9.7,9.77a.5.5,0,0,0,.356.857l1.169,0v8.789h5.6V415.4h4.944v7.582h5.607v-8.789H136A.509.509,0,0,0,136.371,413.335Z" transform="translate(-117.128 -403.565)" fill="#2d2d2d"/></g><path d="M247.293,420.013c0-4.259-3.4-6.983-6.813-7.627a4.441,4.441,0,0,0,2.745-4.065,4.6,4.6,0,0,0-9.2,0,4.441,4.441,0,0,0,2.745,4.065c-3.413.641-6.748,3.828-6.748,7.627v3.221h17.271Z" transform="translate(13.828 -402.22)" fill="#2d2d2d"/><g transform="translate(162.084 1.82)"><line y1="17.746" transform="translate(15.711)" fill="none" stroke="#2d2d2d" stroke-miterlimit="10" stroke-width="1"/><line y1="13.346" transform="translate(10.474 4.399)" fill="none" stroke="#2d2d2d" stroke-miterlimit="10" stroke-width="1"/><line y1="8.947" transform="translate(5.237 8.799)" fill="none" stroke="#2d2d2d" stroke-miterlimit="10" stroke-width="1"/><line y1="4.548" transform="translate(0 13.198)" fill="none" stroke="#2d2d2d" stroke-miterlimit="10" stroke-width="1"/></g><g transform="translate(83.474)"><path d="M172.493,407.256c.16,1.6.868,12.252-8.161,18.77a.276.276,0,0,1-.318,0c-9.035-6.523-8.32-17.187-8.16-18.773a.224.224,0,0,1,.214-.212c1.045-.082,6.08-.629,7.906-3.8a.231.231,0,0,1,.4-.032c.635.979,2.834,3.676,7.873,3.834A.241.241,0,0,1,172.493,407.256Z" transform="translate(-155.774 -403.11)" fill="#2d2d2d"/><path d="M157.845,410.383l3.161,3.1,5.6-6.819" transform="translate(-153.371 -398.991)" fill="none" stroke="#fff" stroke-miterlimit="10" stroke-width="0.5"/></g></g></g></g></svg>