<svg width="350" height="60" viewBox="0 0 350 60" fill="none" xmlns="http://www.w3.org/2000/svg">
<g clip-path="url(#clip0_520_2)">
<g clip-path="url(#clip1_520_2)">
<path d="M0 0H350.1V39.6C350.1 50.9 340.9 60.1 329.6 60.1H20.5C9.2 60.1 0 50.9 0 39.6V0Z" fill="white"/>
<path d="M222.6 31.9L224.6 31.6C224.8 30.7 224.9 29.8 224.9 29L223 28.3C223 27.9 222.9 27.5 222.8 27.1L224.4 25.9C224.1 25.1 223.8 24.3 223.3 23.5L221.3 23.9C221.1 23.6 220.8 23.3 220.6 23L221.3 21.2C220.7 20.6 219.9 20.1 219.2 19.7L217.7 21C217.4 20.9 216.7 20.6 216.6 20.6L216.3 18.6C215.4 18.4 214.5 18.3 213.7 18.3L213 20.2C212.6 20.2 212.2 20.3 211.8 20.4L210.6 18.8C209.8 19.1 209 19.4 208.2 19.9L208.6 21.9C208.3 22.1 208 22.4 207.7 22.6L205.9 21.9C205.3 22.5 204.8 23.3 204.4 24L205.7 25.5C205.6 25.8 205.3 26.5 205.3 26.6L203.3 26.9C203.1 27.8 203 28.7 203 29.5L204.9 30.2C204.9 30.6 205 31 205.1 31.4L203.5 32.6C203.8 33.4 204.1 34.3 204.6 35L206.6 34.6C206.8 34.9 207.1 35.2 207.3 35.5L206.6 37.3C207.2 37.9 208 38.4 208.7 38.8L210.1 37.6C210.4 37.7 211.1 38 211.2 38L211.5 40C212.4 40.2 213.3 40.3 214.1 40.3L214.8 38.4C215.2 38.4 215.6 38.3 216 38.2L217.2 39.8C218 39.5 218.8 39.2 219.6 38.7L219.2 36.7C219.5 36.5 219.8 36.2 220.1 36L221.9 36.7C222.5 36.1 223 35.3 223.4 34.6L222.1 33.1C222.2 32.8 222.6 32 222.6 31.9ZM220.9 31.6C219.6 35.5 215.3 37.6 211.5 36.3C207.5 34.9 205.4 30.4 207 26.4C208.4 23 212.2 21.1 215.8 22.1C219.9 23.2 222.2 27.6 220.9 31.6Z" fill="#414042"/>
<path d="M213.9 22.4C210.1 22.4 207.1 25.5 207.1 29.2C207.1 32.9 210.2 36 213.9 36C217.6 36 220.7 32.9 220.7 29.2C220.7 25.5 217.6 22.4 213.9 22.4ZM213.9 34.2C211.2 34.2 209 32 209 29.3C209 26.6 211.2 24.4 213.9 24.4C216.6 24.4 218.8 26.6 218.8 29.3C218.8 32 216.6 34.2 213.9 34.2Z" fill="#414042"/>
<path d="M297 29C299.7 29 301.9 26.8 301.9 24.1C301.9 21.4 299.7 19.2 297 19.2C294.3 19.2 292.1 21.4 292.1 24.1C292.1 26.8 294.3 29 297 29Z" fill="#414042"/>
<path d="M297 31.1C292.5 31.1 288.7 34.4 287.9 38.7H306C305.3 34.3 301.5 31.1 297 31.1Z" fill="#414042"/>
<path fill-rule="evenodd" clip-rule="evenodd" d="M62.7998 30.4V38.7H56.9998V31.9H51.2998V38.7H45.4998V30.4H41.2998L54.1998 17.5L67.0998 30.4H62.7998Z" fill="#414042"/>
<path d="M142.7 24.9H130.3C129.3 24.9 128.5 25.7 128.5 26.7V37C128.5 38 129.3 38.8 130.3 38.8H142.7C143.7 38.8 144.5 38 144.5 37V26.7C144.4 25.7 143.7 24.9 142.7 24.9ZM137.2 31.8L137.5 34.2C137.5 34.6 137.5 34.9 136.9 34.9H136C135.6 34.9 135.3 34.6 135.4 34.2L135.7 31.8C135.1 31.5 134.8 31 134.8 30.3C134.8 29.4 135.5 28.6 136.5 28.6C137.4 28.6 138.2 29.3 138.2 30.3C138.2 31.1 137.8 31.5 137.2 31.8Z" fill="#414042"/>
<path d="M132.6 20C132.6 19 133 18 133.7 17.2C134.4 16.5 135.4 16.1 136.5 16.1C137.5 16.1 138.5 16.5 139.3 17.2C140 17.9 140.4 18.9 140.4 20V23.7H142V20C142 19.3 141.9 18.5 141.6 17.9C141.3 17.2 140.9 16.7 140.4 16.2C139.9 15.7 139.3 15.3 138.7 15C138 14.7 137.3 14.6 136.6 14.6C135.9 14.6 135.1 14.7 134.5 15C133.8 15.3 133.3 15.7 132.8 16.2C132.3 16.7 131.9 17.3 131.6 17.9C131.3 18.6 131.2 19.3 131.2 20V23.7H132.6V20Z" fill="#414042"/>
</g>
</g>
<defs>
<clipPath id="clip0_520_2">
<rect width="350" height="60" fill="white"/>
</clipPath>
<clipPath id="clip1_520_2">
<rect width="350.1" height="60.1" fill="white"/>
</clipPath>
</defs>
</svg>
