<svg xmlns="http://www.w3.org/2000/svg" width="293.511" height="14" viewBox="0 0 293.511 14">
  <g id="Сгруппировать_92" data-name="Сгруппировать 92" transform="translate(0 3)">
    <text id="_9:30" data-name="9:30" transform="translate(0 8)" fill="#2d2d2d" font-size="10" font-family="OpenSans-Semibold, Open Sans" font-weight="600"><tspan x="0" y="0">9:30</tspan></text>
    <g id="Сгруппировать_89" data-name="Сгруппировать 89" transform="translate(239.304 0.746)">
      <rect id="Прямоугольник_29" data-name="Прямоугольник 29" width="2.27" height="3.715" transform="translate(0 4.592)" fill="#2d2d2d"/>
      <rect id="Прямоугольник_30" data-name="Прямоугольник 30" width="2.27" height="5.211" transform="translate(3.25 3.095)" fill="#2d2d2d"/>
      <rect id="Прямоугольник_31" data-name="Прямоугольник 31" width="2.27" height="6.655" transform="translate(6.501 1.651)" fill="#2d2d2d"/>
      <rect id="Прямоугольник_32" data-name="Прямоугольник 32" width="2.27" height="8.306" transform="translate(9.751)" fill="#2d2d2d"/>
    </g>
    <g id="Сгруппировать_90" data-name="Сгруппировать 90" transform="translate(258.179 1.056)">
      <path id="Контур_43" data-name="Контур 43" d="M229.158,96.288l1.091,1.093a7.527,7.527,0,0,1,10.092,0l1.091-1.093a9.07,9.07,0,0,0-12.273,0Z" transform="translate(-229.158 -93.897)" fill="#2d2d2d"/>
      <path id="Контур_44" data-name="Контур 44" d="M230.1,96.784l1.093,1.093a4.632,4.632,0,0,1,6,0l1.093-1.093a6.173,6.173,0,0,0-8.189,0Z" transform="translate(-228.061 -92.35)" fill="#2d2d2d"/>
      <path id="Контур_45" data-name="Контур 45" d="M231.05,97.269l1.11,1.11a1.705,1.705,0,0,1,1.881,0l1.11-1.11A3.374,3.374,0,0,0,231.05,97.269Z" transform="translate(-226.963 -90.791)" fill="#2d2d2d"/>
    </g>
    <g id="Сгруппировать_91" data-name="Сгруппировать 91" transform="translate(277.57 1.752)">
      <rect id="Прямоугольник_33" data-name="Прямоугольник 33" width="14.445" height="6.294" rx="0.156" fill="#2d2d2d"/>
      <rect id="Прямоугольник_34" data-name="Прямоугольник 34" width="1.161" height="2.709" rx="0.156" transform="translate(14.78 1.793)" fill="#2d2d2d"/>
    </g>
  </g>
</svg>
