<svg width="294" height="14" viewBox="0 0 294 14" fill="none" xmlns="http://www.w3.org/2000/svg">
<g clip-path="url(#clip0_520_13)">
<path d="M3 9.83H1.9V3.93C1.8 4.03 1.7 4.03001 1.6 4.13001C1.5 4.23001 1.1 4.53 0.5 5.03L0 4.33L2.1 2.63H3.1L3 9.83Z" fill="#414042"/>
<path d="M10.1998 9.83H5.2998V8.93L7.1998 7.13C7.6998 6.53 8.0998 6.13001 8.2998 5.93001C8.4998 5.73001 8.5998 5.43 8.6998 5.23C8.7998 5.03 8.7998 4.83 8.7998 4.63C8.7998 4.33 8.6998 4.03 8.4998 3.83C8.2998 3.63 7.9998 3.53 7.6998 3.53C7.3998 3.53 7.1998 3.63 6.8998 3.73C6.5998 3.83 6.2998 4.03 5.9998 4.23L5.3998 3.53C5.7998 3.13 6.1998 2.93 6.4998 2.83C6.8998 2.73 7.2998 2.63 7.6998 2.63C8.3998 2.63 8.8998 2.83 9.2998 3.13C9.6998 3.43 9.8998 3.93 9.8998 4.53C9.8998 4.83 9.7998 5.13001 9.6998 5.43001C9.5998 5.73001 9.4998 6.03 9.1998 6.33C8.9998 6.63 8.5998 7.03 7.9998 7.53L6.7998 8.73H10.1998V9.83Z" fill="#414042"/>
<path d="M11.2998 5.03002C11.2998 4.53002 11.4998 4.33002 11.9998 4.33002C12.1998 4.33002 12.3998 4.43002 12.4998 4.53002C12.5998 4.63002 12.6998 4.83002 12.6998 5.03002C12.6998 5.23002 12.5998 5.43002 12.4998 5.53002C12.3998 5.73002 12.1998 5.83002 11.9998 5.83002C11.7998 5.83002 11.5998 5.73002 11.4998 5.63002C11.3998 5.53002 11.2998 5.33002 11.2998 5.03002ZM11.2998 9.23002C11.2998 9.03002 11.3998 8.83002 11.4998 8.73002C11.5998 8.63002 11.7998 8.53002 11.9998 8.53002C12.1998 8.53002 12.3998 8.63002 12.4998 8.73002C12.5998 8.83002 12.6998 9.03002 12.6998 9.23002C12.6998 9.43002 12.5998 9.63002 12.4998 9.73002C12.3998 9.83002 12.1998 9.93002 11.9998 9.93002C11.7998 9.93002 11.5998 9.83002 11.4998 9.73002C11.3998 9.63002 11.2998 9.43002 11.2998 9.23002Z" fill="#414042"/>
<path d="M18.5998 6.23C18.5998 7.43 18.3998 8.43 17.9998 9.03C17.5998 9.63001 16.9998 9.93 16.1998 9.93C15.3998 9.93 14.7998 9.63001 14.3998 9.03C13.9998 8.43 13.7998 7.53 13.7998 6.33C13.7998 5.03 13.9998 4.13 14.3998 3.53C14.7998 2.93 15.3998 2.63 16.1998 2.63C16.9998 2.63 17.5998 2.93 17.9998 3.53C18.3998 4.13 18.5998 5.03 18.5998 6.23ZM14.9998 6.23C14.9998 7.23 15.0998 7.93 15.2998 8.33C15.4998 8.73 15.7998 8.93 16.2998 8.93C16.7998 8.93 17.0998 8.73 17.2998 8.33C17.4998 7.93 17.5998 7.23 17.5998 6.23C17.5998 5.23 17.4998 4.63001 17.2998 4.13001C17.0998 3.73 16.7998 3.53 16.2998 3.53C15.7998 3.53 15.4998 3.73 15.2998 4.13001C15.0998 4.53001 14.9998 5.33 14.9998 6.23Z" fill="#414042"/>
<path d="M24.3996 6.23C24.3996 7.43 24.1996 8.43 23.7996 9.03C23.3996 9.63001 22.7996 9.93 21.9996 9.93C21.1996 9.93 20.5996 9.63001 20.1996 9.03C19.7996 8.43 19.5996 7.53 19.5996 6.33C19.5996 5.03 19.7996 4.13 20.1996 3.53C20.5996 2.93 21.1996 2.63 21.9996 2.63C22.7996 2.63 23.3996 2.93 23.7996 3.53C24.1996 4.13 24.3996 5.03 24.3996 6.23ZM20.6996 6.23C20.6996 7.23 20.7996 7.93 20.9996 8.33C21.1996 8.73 21.4996 8.93 21.9996 8.93C22.4996 8.93 22.7996 8.73 22.9996 8.33C23.1996 7.93 23.1996 7.23 23.1996 6.23C23.1996 5.23 23.0996 4.63001 22.8996 4.13001C22.6996 3.73 22.3996 3.53 21.8996 3.53C21.3996 3.53 21.0996 3.73 20.8996 4.13001C20.6996 4.53001 20.6996 5.33 20.6996 6.23Z" fill="#414042"/>
<path d="M240.8 7.17999H238.5V10.88H240.8V7.17999Z" fill="#414042"/>
<path d="M244 5.67999H241.7V10.88H244V5.67999Z" fill="#414042"/>
<path d="M247.3 4.28003H245V10.98H247.3V4.28003Z" fill="#414042"/>
<path d="M250.6 2.58002H248.3V10.88H250.6V2.58002Z" fill="#414042"/>
<path d="M269.5 3.55C269.01 3.22 268.5 2.94 267.96 2.71C266.84 2.24 265.65 2 264.43 2C263.21 2 262.02 2.24 260.9 2.71C260.36 2.94 259.84 3.22 259.36 3.55C259.04 3.77 258.73 4.01 258.43 4.27L259.3 5.24C259.93 4.69 260.64 4.24 261.41 3.91C262.37 3.5 263.39 3.3 264.44 3.3C265.49 3.3 266.51 3.51 267.47 3.91C268.24 4.24 268.95 4.68 269.58 5.23L270.45 4.26C270.16 4 269.85 3.76 269.53 3.55H269.5Z" fill="#414042"/>
<path d="M266.96 5.09002C266.16 4.75002 265.31 4.58002 264.43 4.58002C263.55 4.58002 262.7 4.75002 261.9 5.09002C261.26 5.36002 260.67 5.73002 260.14 6.19002L261.01 7.17002C261.43 6.80002 261.9 6.51002 262.41 6.29002C263.05 6.02002 263.73 5.88002 264.43 5.88002C265.13 5.88002 265.81 6.02002 266.45 6.29002C266.96 6.51002 267.43 6.80002 267.85 7.16002L268.72 6.18002C268.2 5.72002 267.61 5.35002 266.97 5.08002L266.96 5.09002Z" fill="#414042"/>
<path d="M265.95 7.47998C265.47 7.27998 264.96 7.16998 264.43 7.16998C263.9 7.16998 263.39 7.26998 262.91 7.47998C262.53 7.63998 262.18 7.85998 261.86 8.12998L262.73 9.10998C263.2 8.69998 263.8 8.47998 264.43 8.47998C265.06 8.47998 265.66 8.69998 266.13 9.10998L267 8.12998C266.69 7.85998 266.34 7.63998 265.96 7.47998H265.95Z" fill="#414042"/>
<path d="M264.43 9.74999C264.11 9.74999 263.81 9.86999 263.58 10.06L264.43 11.01L265.28 10.05C265.05 9.85999 264.75 9.73999 264.43 9.73999V9.74999Z" fill="#414042"/>
<path d="M291.02 3.5H277.07C276.943 3.5 276.84 3.60297 276.84 3.73V9.65C276.84 9.77703 276.943 9.88 277.07 9.88H291.02C291.147 9.88 291.25 9.77703 291.25 9.65V3.73C291.25 3.60297 291.147 3.5 291.02 3.5Z" fill="#414042"/>
<path d="M292.7 7.88998V5.49997C292.7 5.38399 292.606 5.28998 292.49 5.28998H291.87C291.754 5.28998 291.66 5.38399 291.66 5.49997V7.88998C291.66 8.00596 291.754 8.09998 291.87 8.09998H292.49C292.606 8.09998 292.7 8.00596 292.7 7.88998Z" fill="#414042"/>
</g>
<defs>
<clipPath id="clip0_520_13">
<rect width="292.7" height="9.02" fill="white" transform="translate(0 2)"/>
</clipPath>
</defs>
</svg>
